<svg width="41" height="53" viewBox="0 0 41 53" fill="none" xmlns="http://www.w3.org/2000/svg">
<path d="M34.4311 45.8804C34.0223 45.7529 33.5866 45.9808 33.4586 46.39L32.8281 48.4084C32.2603 50.226 30.5994 51.4473 28.695 51.4473H11.7748C9.87042 51.4473 8.20951 50.226 7.64173 48.4084L1.96141 30.2255C1.19115 27.7597 1.51961 25.0816 2.86283 22.8779C3.08601 22.5118 2.97007 22.0342 2.60393 21.8109C2.2377 21.5876 1.76007 21.7035 1.5369 22.0698C-0.0387155 24.655 -0.424208 27.7963 0.47938 30.6885L6.15969 48.8713C6.93099 51.3409 9.18753 53 11.7748 53H28.695C31.2823 53 33.5388 51.3409 34.3102 48.8713L34.9408 46.853C35.0685 46.4437 34.8403 46.0083 34.4311 45.8804Z" fill="#B3B5B7"/>
<path d="M34.0995 17.9933C32.3418 17.229 30.5581 16.6013 28.7844 16.12L30.4349 12.3939H34.3861C35.4323 12.3939 36.2835 11.5427 36.2835 10.4965V6.48732C36.2835 5.44109 35.4323 4.58988 34.3861 4.58988H30.4913C30.396 4.42964 30.295 4.27209 30.1868 4.11837L28.367 1.53534C27.6896 0.573994 26.5831 0 25.4069 0H15.0626C13.8866 0 12.78 0.573994 12.1026 1.53545L10.2828 4.11837C8.80065 6.22222 8.52737 8.99095 9.56957 11.3441L11.6464 16.0324C9.81076 16.5214 7.97739 17.1728 6.18419 17.9758C5.45958 18.2996 4.77234 18.7065 4.14162 19.185C3.80002 19.4442 3.73315 19.9311 3.99235 20.2728C4.14504 20.474 4.37681 20.5799 4.61138 20.5799C4.77493 20.5799 4.93973 20.5286 5.07999 20.4222C5.61651 20.0152 6.20117 19.6691 6.81823 19.3932C8.6135 18.5892 10.4489 17.9448 12.2834 17.4709L12.8223 18.6875C12.8555 18.7621 12.8916 18.8348 12.93 18.9058C11.1005 19.3619 9.26368 20.0001 7.45288 20.8102C4.04898 22.3333 2.32513 26.182 3.4432 29.7624L9.12331 47.9455C9.48872 49.1112 10.5544 49.8944 11.7751 49.8944H28.6947C29.9162 49.8944 30.9815 49.1109 31.3456 47.9448L36.9986 29.8504C38.1295 26.2309 36.3508 22.3581 32.8613 20.8419C31.0738 20.0647 29.2731 19.4437 27.4912 18.9884C27.5476 18.8912 27.6008 18.7916 27.6471 18.6873L28.1478 17.5569C29.9245 18.026 31.7151 18.6498 33.4802 19.4172C37.6985 21.2515 39.8481 25.936 38.4801 30.3139L34.5394 42.9314C34.4116 43.3407 34.6397 43.7761 35.049 43.9041C35.126 43.9281 35.204 43.9396 35.2807 43.9396C35.6113 43.9396 35.9178 43.7266 36.0215 43.3945L39.9623 30.7769C41.5673 25.6403 39.0468 20.1445 34.0995 17.9933ZM34.3861 6.14261C34.5761 6.14261 34.7308 6.29727 34.7308 6.48732V10.4965C34.7308 10.6865 34.5761 10.8412 34.3861 10.8412H31.0998C31.6422 9.31961 31.6612 7.66253 31.1843 6.14251H34.3861V6.14261ZM11.5522 5.01264L13.3719 2.42972C13.7588 1.88057 14.3909 1.55273 15.0626 1.55273H25.4069C26.0786 1.55273 26.7107 1.88057 27.0977 2.42972L28.9175 5.01264C30.0873 6.67313 30.3029 8.85814 29.4804 10.7153L26.2276 18.0585C25.9779 18.6219 25.4184 18.9861 24.8022 18.9861H15.6675C15.0512 18.9861 14.4918 18.6219 14.2422 18.0586L10.9894 10.7154C10.1667 8.85814 10.3825 6.67303 11.5522 5.01264ZM20.2348 34.8278C21.9022 34.8278 23.2588 33.4713 23.2588 31.8038V26.3957C23.998 27.1627 24.4268 28.1938 24.4268 29.301V38.3224C24.4268 40.6341 22.5462 42.5148 20.2345 42.5148C17.9228 42.5148 16.0421 40.6341 16.0421 38.3224V29.301C16.0421 28.1942 16.4712 27.163 17.2109 26.3955V31.8038C17.2109 33.4713 18.5673 34.8278 20.2348 34.8278ZM21.706 31.8038C21.706 32.6151 21.046 33.2751 20.2348 33.2751C19.4235 33.2751 18.7636 32.6151 18.7636 31.8038V20.5387H21.706V31.8038ZM35.5167 29.3875L29.8637 47.4821C29.7031 47.9963 29.2334 48.3419 28.6949 48.3419H11.7753C11.2368 48.3419 10.7665 47.996 10.6054 47.482L4.92555 29.2997C4.04194 26.4699 5.4012 23.4295 8.08722 22.2277C10.1273 21.315 12.199 20.6321 14.2497 20.1945C14.6805 20.4154 15.1641 20.5389 15.6675 20.5389H17.2109V24.4161C15.521 25.4602 14.4894 27.2902 14.4894 29.3012V38.3226C14.4894 41.4905 17.0666 44.0677 20.2345 44.0677C23.4024 44.0677 25.9796 41.4905 25.9796 38.3226V29.3012C25.9796 27.2894 24.9483 25.4596 23.2588 24.4166V20.5389H24.8022C25.2595 20.5389 25.701 20.4381 26.1011 20.2541C28.1277 20.699 30.1924 21.3748 32.2425 22.2662C35.0028 23.4655 36.4104 26.527 35.5167 29.3875Z" fill="#B3B5B7"/>
<path d="M28.7694 26.7244H29.8023C30.2311 26.7244 30.5787 26.3769 30.5787 25.948C30.5787 25.5191 30.2311 25.1716 29.8023 25.1716H28.7694C28.3406 25.1716 27.993 25.5191 27.993 25.948C27.993 26.3769 28.3406 26.7244 28.7694 26.7244Z" fill="#B3B5B7"/>
<path d="M28.7694 33.3811H29.8023C30.2311 33.3811 30.5787 33.0336 30.5787 32.6047C30.5787 32.1759 30.2311 31.8284 29.8023 31.8284H28.7694C28.3406 31.8284 27.993 32.1759 27.993 32.6047C27.993 33.0336 28.3406 33.3811 28.7694 33.3811Z" fill="#B3B5B7"/>
<path d="M29.8023 38.4856H28.7694C28.3406 38.4856 27.993 38.8331 27.993 39.262C27.993 39.6908 28.3406 40.0383 28.7694 40.0383H29.8023C30.2311 40.0383 30.5787 39.6908 30.5787 39.262C30.5787 38.8331 30.2311 38.4856 29.8023 38.4856Z" fill="#B3B5B7"/>
</svg>
