<svg width="54" height="53" viewBox="0 0 54 53" fill="none" xmlns="http://www.w3.org/2000/svg">
<path d="M2.28656 8.29535L15.7286 12.1911C15.9103 12.2442 16.0792 12.3329 16.2247 12.4521L20.9659 16.3373L21.7303 16.9659L27.9249 48.6355C28.238 50.2453 29.2806 51.627 30.757 52.3873C32.2334 53.1472 33.9818 53.2032 35.5052 52.5389L44.1425 48.7858C44.984 49.7662 46.3722 50.101 47.5796 49.6147L52.1354 47.7766C53.6695 47.1581 54.4034 45.434 53.7754 43.9251L45.4785 24.0047L46.0941 23.3052C47.2425 21.9968 47.0979 20.0214 45.771 18.8882L36.2779 10.7985C35.6387 10.2542 34.806 9.9822 33.9633 10.0422C33.1202 10.1022 32.336 10.4892 31.783 11.1178L30.2477 12.8647L26.797 10.0369H26.7917L20.4006 4.92368C20.073 4.66105 19.6951 4.46569 19.2896 4.34897L4.72846 0.127789C3.04229 -0.359379 1.27329 0.589018 0.775929 2.24709L0.131459 4.39963C-0.109188 5.19725 -0.0168851 6.05608 0.387351 6.78724C0.791588 7.51799 1.47479 8.06068 2.28656 8.29535ZM31.0314 14.6841L33.1453 12.2794C33.3856 12.0063 33.7263 11.8381 34.0931 11.8117C34.4594 11.7858 34.8216 11.9041 35.0993 12.1404L44.5925 20.2269C45.1694 20.7194 45.232 21.5778 44.733 22.1464L43.7556 23.2581C43.5331 23.5106 43.4738 23.8649 43.6023 24.1737L52.1098 44.5918C52.3612 45.1953 52.0674 45.8851 51.4538 46.1323L46.8964 47.9695C46.6013 48.0883 46.2704 48.0871 45.9762 47.9659C45.6824 47.8447 45.4496 47.6133 45.3289 47.3231C45.237 47.1018 45.0581 46.9263 44.8323 46.8367C44.6069 46.7472 44.3543 46.7508 44.1318 46.8477L34.7779 50.9124C33.756 51.3566 32.5841 51.3181 31.5947 50.8083C30.6049 50.2984 29.9057 49.3727 29.6947 48.2934L23.4395 16.3142C23.4 16.1135 23.2912 15.9324 23.1317 15.8015L22.849 15.5696L26.2976 11.9325L29.7759 14.7817C30.1525 15.0898 30.7108 15.0448 31.0314 14.6808V14.6841ZM1.85801 4.9026L2.50084 2.74844C2.60426 2.40151 2.84409 2.1097 3.16673 1.93663C3.48938 1.76398 3.86848 1.72426 4.2208 1.8268L18.7729 6.04027C18.9493 6.09134 19.1133 6.17605 19.2554 6.28994L24.9048 10.8054L21.4645 14.4356L17.3768 11.0842C17.043 10.8098 16.6557 10.606 16.2383 10.4856L2.79423 6.59269C2.06116 6.37991 1.6425 5.62363 1.85801 4.9026Z" fill="#B3B5B7"/>
</svg>
