<svg width="70" height="53" viewBox="0 0 70 53" fill="none" xmlns="http://www.w3.org/2000/svg">
<path d="M65.625 20.6111C63.2125 20.6111 61.25 22.5922 61.25 25.0277V29.4444H58.3333V23.9121C58.3333 22.3622 57.7111 20.8439 56.6244 19.7484L53.3545 16.4474C52.2692 15.3504 50.7652 14.7221 49.2301 14.7221H40.8332V8.83331H45.2082C47.6208 8.83331 49.5832 6.85217 49.5832 4.41665C49.5832 1.98114 47.6208 0 45.2082 0H27.7082C25.2957 0 23.3332 1.98114 23.3332 4.41665C23.3332 6.85217 25.2957 8.83331 27.7082 8.83331H32.0832V14.7222H26.6031C25.0679 14.7222 23.564 15.3505 22.4787 16.4475L18.3543 20.6112H16.0415C13.6289 20.6112 11.6665 22.5922 11.6665 25.0279V29.4445H8.75V25.0279C8.75 22.5922 6.78754 20.6112 4.375 20.6112C1.96246 20.6112 0 22.5922 0 25.0279V42.6945C0 45.13 1.96246 47.1111 4.375 47.1111C6.78754 47.1111 8.75 45.13 8.75 42.6945V38.2778H11.6666V42.6945C11.6666 45.13 13.6291 47.1111 16.0417 47.1111H18.3545L22.4789 51.2748C23.5642 52.3717 25.0681 53 26.6033 53H46.3134C47.8487 53 49.3526 52.3717 50.4378 51.2748L56.6244 45.0293C57.7111 43.9337 58.3333 42.4154 58.3333 40.8656V38.2778H61.25V42.6945C61.25 45.13 63.2125 47.1111 65.625 47.1111C68.0375 47.1111 70 45.13 70 42.6945V25.0279C70 22.5922 68.0375 20.6111 65.625 20.6111ZM67.0835 42.6943C67.0833 43.5065 66.4297 44.1665 65.625 44.1665C64.8205 44.1665 64.1667 43.5067 64.1667 42.6943V36.8053C64.1667 35.9915 63.5143 35.3331 62.7082 35.3331H56.875C56.0689 35.3331 55.4167 35.9915 55.4167 36.8053V40.8655C55.4167 41.6404 55.1048 42.3996 54.5622 42.9473L48.3756 49.1926C47.833 49.7406 47.0811 50.0553 46.3134 50.0553H26.6031C25.8354 50.0553 25.0835 49.7406 24.5411 49.1926L19.9894 44.5978C19.7159 44.3217 19.3457 44.1664 18.9582 44.1664H16.0417C15.237 44.1664 14.5832 43.5065 14.5832 42.6942V36.8053C14.5832 35.9915 13.931 35.3329 13.1249 35.3329H7.29162C6.48553 35.3329 5.83324 35.9915 5.83324 36.8053V42.6942C5.83338 43.5067 5.1796 44.1665 4.375 44.1665C3.5704 44.1665 2.91662 43.5067 2.91662 42.6943V25.0277C2.91662 24.2154 3.57028 23.5553 4.375 23.5553C5.17972 23.5553 5.83338 24.2152 5.83338 25.0277V30.9166C5.83338 31.7303 6.48567 32.3888 7.29176 32.3888H13.125C13.9311 32.3888 14.5834 31.7303 14.5834 30.9166V25.0277C14.5834 24.2154 15.237 23.5553 16.0418 23.5553H18.9583C19.3457 23.5553 19.716 23.4002 19.9895 23.1241L24.5411 18.5292C25.0836 17.9815 25.8356 17.6666 26.6031 17.6666H33.5417C34.3478 17.6666 35 17.0082 35 16.1944V7.36104C35 6.54728 34.3478 5.88878 33.5417 5.88878H27.7082C26.9036 5.88892 26.25 5.22891 26.25 4.41665C26.25 3.6044 26.9036 2.94439 27.7083 2.94439H45.2083C46.013 2.94439 46.6668 3.60427 46.6668 4.41665C46.6668 5.22904 46.0132 5.88892 45.2083 5.88892H39.375C38.5689 5.88892 37.9167 6.54742 37.9167 7.36118V16.1946C37.9167 17.0083 38.5689 17.6668 39.375 17.6668H49.2301C49.9977 17.6668 50.7497 17.9816 51.2923 18.5294L54.5622 21.8304C55.1048 22.3782 55.4167 23.1373 55.4167 23.9121V30.9166C55.4167 31.7303 56.0689 32.3888 56.875 32.3888H62.7083C63.5144 32.3888 64.1668 31.7303 64.1668 30.9166V25.0277C64.1668 24.2154 64.8205 23.5553 65.6252 23.5553C66.4297 23.5553 67.0835 24.2152 67.0835 25.0277V42.6943Z" fill="#B3B5B7"/>
</svg>
